<svg width="14.5190978224269" height="16.4558089955788">
<g id="all" transform="translate(6.39777747886721,8.2279044977894)">
<g id="aretes" style="stroke: rgb(0,0,0) ; stroke-width: 0.1">
<line x1="-2.5" y1="-4.33012701892219" x2="-3.27645713530756" y2="-1.43234954005499"/>
<line x1="-4.18726667333044" y1="-2.13123827948859" x2="-1.58919046197712" y2="-3.63123827948859"/>
<line x1="-3.63822856765378" y1="-4.18027638516525" x2="-2.13822856765378" y2="-1.58220017381193"/>
<line x1="0" y1="0" x2="-2.5" y2="4.33012701892219"/>
<line x1="-3.66481456572267" y1="2.8121111222174" x2="1.16481456572267" y2="1.51801589670479"/>
<line x1="-1.8970476127563" y1="-0.249751056261574" x2="-0.602952387243698" y2="4.57987807518376"/>
<line x1="-2.5" y1="-4.33012701892219" x2="-5.39777747886721" y2="-5.10658415422976"/>
<line x1="-4.6988887394336" y1="-6.01739369225264" x2="-3.19888873943361" y2="-3.41931748089931"/>
<line x1="-2.64985063375694" y1="-5.46835558657597" x2="-5.24792684511027" y2="-3.96835558657598"/>
<line x1="-2.5" y1="-4.33012701892219" x2="-5.39777747886721" y2="-5.10658415422976"/>
<line x1="-4.6988887394336" y1="-6.01739369225264" x2="-3.19888873943361" y2="-3.41931748089931"/>
<line x1="-2.64985063375694" y1="-5.46835558657597" x2="-5.24792684511027" y2="-3.96835558657598"/>
<line x1="-2.5" y1="4.33012701892219" x2="-5.3977774788672" y2="5.10658415422976"/>
<line x1="-5.24792684511026" y1="3.96835558657598" x2="-2.64985063375694" y2="5.46835558657597"/>
<line x1="-3.1988887394336" y1="3.41931748089932" x2="-4.6988887394336" y2="6.01739369225263"/>
<line x1="-2.5" y1="-4.33012701892219" x2="-3.27645713530756" y2="-1.43234954005499"/>
<line x1="-4.18726667333044" y1="-2.13123827948859" x2="-1.58919046197712" y2="-3.63123827948859"/>
<line x1="-3.63822856765378" y1="-4.18027638516525" x2="-2.13822856765378" y2="-1.58220017381193"/>
<line x1="-2.5" y1="-4.33012701892219" x2="0.397777478867203" y2="-3.55366988361463"/>
<line x1="-0.301111260566399" y1="-2.64286034559175" x2="-1.8011112605664" y2="-5.24093655694507"/>
<line x1="-2.35014936624306" y1="-3.19189845126841" x2="0.247926845110258" y2="-4.69189845126841"/>
<line x1="-2.5" y1="4.33012701892219" x2="-1.72354286469243" y2="7.2279044977894"/>
<line x1="-2.86177143234621" y1="7.07805386403246" x2="-1.36177143234622" y2="4.47997765267913"/>
<line x1="-3.41080953802288" y1="5.0290157583558" x2="-0.812733326669552" y2="6.52901575835579"/>
<line x1="-2.5" y1="-4.33012701892219" x2="-1.72354286469244" y2="-7.2279044977894"/>
<line x1="-0.812733326669561" y1="-6.5290157583558" x2="-3.41080953802288" y2="-5.02901575835579"/>
<line x1="-1.36177143234622" y1="-4.47997765267914" x2="-2.86177143234622" y2="-7.07805386403245"/>
<line x1="0" y1="0" x2="5" y2="-1.22464679914735e-15"/>
<line x1="4.26776695296637" y1="1.76776695296637" x2="0.732233047033631" y2="-1.76776695296637"/>
<line x1="0.732233047033631" y1="1.76776695296637" x2="4.26776695296637" y2="-1.76776695296637"/>
<line x1="-2.5" y1="4.33012701892219" x2="-3.27645713530756" y2="1.43234954005499"/>
<line x1="-2.13822856765378" y1="1.58220017381193" x2="-3.63822856765378" y2="4.18027638516525"/>
<line x1="-1.58919046197712" y1="3.63123827948859" x2="-4.18726667333044" y2="2.13123827948859"/>
<line x1="0" y1="0" x2="-2.5" y2="-4.33012701892219"/>
<line x1="-0.602952387243699" y1="-4.57987807518376" x2="-1.8970476127563" y2="0.249751056261575"/>
<line x1="1.16481456572267" y1="-1.51801589670479" x2="-3.66481456572267" y2="-2.8121111222174"/>
<line x1="-2.5" y1="4.33012701892219" x2="-1.72354286469243" y2="7.2279044977894"/>
<line x1="-2.86177143234621" y1="7.07805386403246" x2="-1.36177143234622" y2="4.47997765267913"/>
<line x1="-3.41080953802288" y1="5.0290157583558" x2="-0.812733326669552" y2="6.52901575835579"/>
<line x1="5" y1="-1.22464679914735e-15" x2="2.87867965644036" y2="2.12132034355964"/>
<line x1="2.43933982822018" y1="1.06066017177982" x2="5.43933982822018" y2="1.06066017177982"/>
<line x1="3.93933982822018" y1="-0.439339828220179" x2="3.93933982822018" y2="2.56066017177982"/>
<line x1="-2.5" y1="4.33012701892219" x2="0.397777478867205" y2="3.55366988361463"/>
<line x1="0.24792684511026" y1="4.69189845126841" x2="-2.35014936624305" y2="3.19189845126841"/>
<line x1="-1.8011112605664" y1="5.24093655694507" x2="-0.301111260566396" y2="2.64286034559175"/>
<line x1="0" y1="0" x2="-2.5" y2="-4.33012701892219"/>
<line x1="-0.602952387243699" y1="-4.57987807518376" x2="-1.8970476127563" y2="0.249751056261575"/>
<line x1="1.16481456572267" y1="-1.51801589670479" x2="-3.66481456572267" y2="-2.8121111222174"/>
<line x1="-2.5" y1="4.33012701892219" x2="-3.27645713530756" y2="1.43234954005499"/>
<line x1="-2.13822856765378" y1="1.58220017381193" x2="-3.63822856765378" y2="4.18027638516525"/>
<line x1="-1.58919046197712" y1="3.63123827948859" x2="-4.18726667333044" y2="2.13123827948859"/>
<line x1="5" y1="-1.22464679914735e-15" x2="7.12132034355964" y2="-2.12132034355965"/>
<line x1="7.56066017177982" y1="-1.06066017177983" x2="4.56066017177982" y2="-1.06066017177982"/>
<line x1="6.06066017177982" y1="0.439339828220175" x2="6.06066017177982" y2="-2.56066017177983"/>
<line x1="5" y1="-1.22464679914735e-15" x2="2.87867965644036" y2="-2.12132034355965"/>
<line x1="3.93933982822018" y1="-2.56066017177983" x2="3.93933982822018" y2="0.439339828220175"/>
<line x1="5.43933982822018" y1="-1.06066017177982" x2="2.43933982822018" y2="-1.06066017177983"/>
<line x1="-2.5" y1="4.33012701892219" x2="-5.3977774788672" y2="5.10658415422976"/>
<line x1="-5.24792684511026" y1="3.96835558657598" x2="-2.64985063375694" y2="5.46835558657597"/>
<line x1="-3.1988887394336" y1="3.41931748089932" x2="-4.6988887394336" y2="6.01739369225263"/>
<line x1="-2.5" y1="-4.33012701892219" x2="-1.72354286469244" y2="-7.2279044977894"/>
<line x1="-0.812733326669561" y1="-6.5290157583558" x2="-3.41080953802288" y2="-5.02901575835579"/>
<line x1="-1.36177143234622" y1="-4.47997765267914" x2="-2.86177143234622" y2="-7.07805386403245"/>
<line x1="-2.5" y1="4.33012701892219" x2="0.397777478867205" y2="3.55366988361463"/>
<line x1="0.24792684511026" y1="4.69189845126841" x2="-2.35014936624305" y2="3.19189845126841"/>
<line x1="-1.8011112605664" y1="5.24093655694507" x2="-0.301111260566396" y2="2.64286034559175"/>
<line x1="0" y1="0" x2="-2.5" y2="4.33012701892219"/>
<line x1="-3.66481456572267" y1="2.8121111222174" x2="1.16481456572267" y2="1.51801589670479"/>
<line x1="-1.8970476127563" y1="-0.249751056261574" x2="-0.602952387243698" y2="4.57987807518376"/>
<line x1="5" y1="-1.22464679914735e-15" x2="7.12132034355964" y2="-2.12132034355965"/>
<line x1="7.56066017177982" y1="-1.06066017177983" x2="4.56066017177982" y2="-1.06066017177982"/>
<line x1="6.06066017177982" y1="0.439339828220175" x2="6.06066017177982" y2="-2.56066017177983"/>
<line x1="0" y1="0" x2="5" y2="-1.22464679914735e-15"/>
<line x1="4.26776695296637" y1="1.76776695296637" x2="0.732233047033631" y2="-1.76776695296637"/>
<line x1="0.732233047033631" y1="1.76776695296637" x2="4.26776695296637" y2="-1.76776695296637"/>
<line x1="-2.5" y1="-4.33012701892219" x2="0.397777478867203" y2="-3.55366988361463"/>
<line x1="-0.301111260566399" y1="-2.64286034559175" x2="-1.8011112605664" y2="-5.24093655694507"/>
<line x1="-2.35014936624306" y1="-3.19189845126841" x2="0.247926845110258" y2="-4.69189845126841"/>
<line x1="5" y1="-1.22464679914735e-15" x2="2.87867965644036" y2="2.12132034355964"/>
<line x1="2.43933982822018" y1="1.06066017177982" x2="5.43933982822018" y2="1.06066017177982"/>
<line x1="3.93933982822018" y1="-0.439339828220179" x2="3.93933982822018" y2="2.56066017177982"/>
<line x1="5" y1="-1.22464679914735e-15" x2="7.12132034355964" y2="2.12132034355964"/>
<line x1="6.06066017177982" y1="2.56066017177982" x2="6.06066017177982" y2="-0.439339828220179"/>
<line x1="4.56066017177982" y1="1.06066017177982" x2="7.56066017177982" y2="1.06066017177982"/>
<line x1="5" y1="-1.22464679914735e-15" x2="7.12132034355964" y2="2.12132034355964"/>
<line x1="6.06066017177982" y1="2.56066017177982" x2="6.06066017177982" y2="-0.439339828220179"/>
<line x1="4.56066017177982" y1="1.06066017177982" x2="7.56066017177982" y2="1.06066017177982"/>
<line x1="5" y1="-1.22464679914735e-15" x2="2.87867965644036" y2="-2.12132034355965"/>
<line x1="3.93933982822018" y1="-2.56066017177983" x2="3.93933982822018" y2="0.439339828220175"/>
<line x1="5.43933982822018" y1="-1.06066017177982" x2="2.43933982822018" y2="-1.06066017177983"/>
</g>
<g id="noeud" style="stroke: rgb(255,0,0) ; fill: none ; stroke-width: 0.1">
<path d="M -2.88822856765378 -2.88123827948859 C -3.63822856765378 -4.18027638516525 -0.602952387243699 -4.57987807518376 -1.25 -2.1650635094611"/>
<path d="M -1.25 -2.1650635094611 C -1.8970476127563 0.249751056261575 0.732233047033631 1.76776695296637 2.5 -6.12323399573675e-16"/>
<path d="M 2.5 -6.12323399573675e-16 C 4.26776695296637 -1.76776695296637 5.43933982822018 1.06066017177982 3.93933982822018 1.06066017177982"/>
<path d="M 3.93933982822018 1.06066017177982 C 2.43933982822018 1.06066017177982 3.93933982822018 2.56066017177982 3.93933982822018 1.06066017177982"/>
<path d="M 3.93933982822018 1.06066017177982 C 3.93933982822018 -0.439339828220179 6.06066017177982 -0.439339828220179 6.06066017177982 1.06066017177982"/>
<path d="M 6.06066017177982 1.06066017177982 C 6.06066017177982 2.56066017177982 7.56066017177982 1.06066017177982 6.06066017177982 1.06066017177982"/>
<path d="M 6.06066017177982 1.06066017177982 C 4.56066017177982 1.06066017177982 4.56066017177982 -1.06066017177982 6.06066017177982 -1.06066017177983"/>
<path d="M 6.06066017177982 -1.06066017177983 C 7.56066017177982 -1.06066017177983 6.06066017177982 -2.56066017177983 6.06066017177982 -1.06066017177983"/>
<path d="M 6.06066017177982 -1.06066017177983 C 6.06066017177982 0.439339828220175 3.93933982822018 0.439339828220175 3.93933982822018 -1.06066017177983"/>
<path d="M 3.93933982822018 -1.06066017177983 C 3.93933982822018 -2.56066017177983 2.43933982822018 -1.06066017177983 3.93933982822018 -1.06066017177983"/>
<path d="M 3.93933982822018 -1.06066017177983 C 5.43933982822018 -1.06066017177982 4.26776695296637 1.76776695296637 2.5 -6.12323399573675e-16"/>
<path d="M 2.5 -6.12323399573675e-16 C 0.732233047033631 -1.76776695296637 -1.8970476127563 -0.249751056261574 -1.25 2.1650635094611"/>
<path d="M -1.25 2.1650635094611 C -0.602952387243698 4.57987807518376 -3.63822856765378 4.18027638516525 -2.88822856765378 2.88123827948859"/>
<path d="M -2.88822856765378 2.88123827948859 C -2.13822856765378 1.58220017381193 -4.18726667333044 2.13123827948859 -2.88822856765378 2.88123827948859"/>
<path d="M -2.88822856765378 2.88123827948859 C -1.58919046197712 3.63123827948859 -2.64985063375694 5.46835558657597 -3.9488887394336 4.71835558657598"/>
<path d="M -3.9488887394336 4.71835558657598 C -5.24792684511026 3.96835558657598 -4.6988887394336 6.01739369225263 -3.9488887394336 4.71835558657598"/>
<path d="M -3.9488887394336 4.71835558657598 C -3.1988887394336 3.41931748089932 -1.36177143234622 4.47997765267913 -2.11177143234621 5.7790157583558"/>
<path d="M -2.11177143234621 5.7790157583558 C -2.86177143234621 7.07805386403246 -0.812733326669552 6.52901575835579 -2.11177143234621 5.7790157583558"/>
<path d="M -2.11177143234621 5.7790157583558 C -3.41080953802288 5.0290157583558 -2.35014936624305 3.19189845126841 -1.0511112605664 3.94189845126841"/>
<path d="M -1.0511112605664 3.94189845126841 C 0.24792684511026 4.69189845126841 -0.301111260566396 2.64286034559175 -1.0511112605664 3.94189845126841"/>
<path d="M -1.0511112605664 3.94189845126841 C -1.8011112605664 5.24093655694507 -3.66481456572267 2.8121111222174 -1.25 2.1650635094611"/>
<path d="M -1.25 2.1650635094611 C 1.16481456572267 1.51801589670479 1.16481456572267 -1.51801589670479 -1.25 -2.1650635094611"/>
<path d="M -1.25 -2.1650635094611 C -3.66481456572267 -2.8121111222174 -1.8011112605664 -5.24093655694507 -1.0511112605664 -3.94189845126841"/>
<path d="M -1.0511112605664 -3.94189845126841 C -0.301111260566399 -2.64286034559175 0.247926845110258 -4.69189845126841 -1.0511112605664 -3.94189845126841"/>
<path d="M -1.0511112605664 -3.94189845126841 C -2.35014936624306 -3.19189845126841 -3.41080953802288 -5.02901575835579 -2.11177143234622 -5.7790157583558"/>
<path d="M -2.11177143234622 -5.7790157583558 C -0.812733326669561 -6.5290157583558 -2.86177143234622 -7.07805386403245 -2.11177143234622 -5.7790157583558"/>
<path d="M -2.11177143234622 -5.7790157583558 C -1.36177143234622 -4.47997765267914 -3.19888873943361 -3.41931748089931 -3.94888873943361 -4.71835558657598"/>
<path d="M -3.94888873943361 -4.71835558657598 C -4.6988887394336 -6.01739369225264 -5.24792684511027 -3.96835558657598 -3.94888873943361 -4.71835558657598"/>
<path d="M -3.94888873943361 -4.71835558657598 C -2.64985063375694 -5.46835558657597 -1.58919046197712 -3.63123827948859 -2.88822856765378 -2.88123827948859"/>
<path d="M -2.88822856765378 -2.88123827948859 C -4.18726667333044 -2.13123827948859 -2.13822856765378 -1.58220017381193 -2.88822856765378 -2.88123827948859"/>
</g>
</g>
</svg>
