<svg width="15.4344428022014" height="15.856406460551">
<g id="all" transform="translate(6.43444280220142,7.92820323027551)">
<g id="aretes" style="stroke: rgb(0,0,0) ; stroke-width: 0.1">
<line x1="5" y1="-1.22464679914735e-15" x2="2.57294901687516" y2="-1.76335575687742"/>
<line x1="3.55182281087723" y1="-2.36321038933142" x2="4.02112620599793" y2="0.599854632453995"/>
<line x1="5.26800701933029" y1="-1.11632957599906" x2="2.30494199754487" y2="-0.647026180878364"/>
<line x1="-2.5" y1="4.33012701892219" x2="-2.81358538980296" y2="1.34656133281737"/>
<line x1="-1.71281210832672" y1="1.67262523368432" x2="-3.60077328147624" y2="4.00406311805524"/>
<line x1="-1.49107375271602" y1="3.78232476244454" x2="-3.82251163708694" y2="1.89436358929502"/>
<line x1="-2.5" y1="-4.33012701892219" x2="-2.81358538980296" y2="-1.34656133281737"/>
<line x1="-3.82251163708694" y1="-1.89436358929502" x2="-1.49107375271602" y2="-3.78232476244454"/>
<line x1="-3.60077328147624" y1="-4.00406311805524" x2="-1.71281210832672" y2="-1.67262523368432"/>
<line x1="-2.5" y1="4.33012701892219" x2="0.240636372927803" y2="3.10991708969479"/>
<line x1="0.270688826209704" y1="4.25757397862644" x2="-2.5300524532819" y2="3.18247012999054"/>
<line x1="-1.66723373785405" y1="5.12039269405429" x2="-0.592129889218148" y2="2.31965141456269"/>
<line x1="-2.5" y1="4.33012701892219" x2="-0.492608180923423" y2="6.55956149535437"/>
<line x1="-1.57480802482613" y1="6.94278855927014" x2="-1.4178001560973" y2="3.94689995500642"/>
<line x1="-2.99424839259357" y1="5.36634032277387" x2="0.00164021167014927" y2="5.52334819150269"/>
<line x1="-2.5" y1="-4.33012701892219" x2="0.240636372927801" y2="-3.10991708969479"/>
<line x1="-0.59212988921815" y1="-2.31965141456269" x2="-1.66723373785405" y2="-5.12039269405429"/>
<line x1="-2.5300524532819" y1="-3.18247012999054" x2="0.270688826209702" y2="-4.25757397862644"/>
<line x1="-2.5" y1="-4.33012701892219" x2="-5.43444280220142" y2="-3.70639194646891"/>
<line x1="-5.22522725301885" y1="-4.83521803521809" x2="-2.70921554918257" y2="-3.20130093017301"/>
<line x1="-3.15026284857817" y1="-5.27626533461369" x2="-4.78417995362325" y2="-2.76025363077741"/>
<line x1="-2.5" y1="4.33012701892219" x2="0.240636372927803" y2="3.10991708969479"/>
<line x1="0.270688826209704" y1="4.25757397862644" x2="-2.5300524532819" y2="3.18247012999054"/>
<line x1="-1.66723373785405" y1="5.12039269405429" x2="-0.592129889218148" y2="2.31965141456269"/>
<line x1="5" y1="-1.22464679914735e-15" x2="8" y2="-2.69422295812418e-15"/>
<line x1="7.56066017177982" y1="1.06066017177982" x2="5.43933982822018" y2="-1.06066017177982"/>
<line x1="5.43933982822018" y1="1.06066017177982" x2="7.56066017177982" y2="-1.06066017177982"/>
<line x1="0" y1="0" x2="5" y2="-1.22464679914735e-15"/>
<line x1="4.26776695296637" y1="1.76776695296637" x2="0.732233047033631" y2="-1.76776695296637"/>
<line x1="0.732233047033631" y1="1.76776695296637" x2="4.26776695296637" y2="-1.76776695296637"/>
<line x1="0" y1="0" x2="5" y2="-1.22464679914735e-15"/>
<line x1="4.26776695296637" y1="1.76776695296637" x2="0.732233047033631" y2="-1.76776695296637"/>
<line x1="0.732233047033631" y1="1.76776695296637" x2="4.26776695296637" y2="-1.76776695296637"/>
<line x1="0" y1="0" x2="-2.5" y2="4.33012701892219"/>
<line x1="-3.66481456572267" y1="2.8121111222174" x2="1.16481456572267" y2="1.51801589670479"/>
<line x1="-1.8970476127563" y1="-0.249751056261574" x2="-0.602952387243698" y2="4.57987807518376"/>
<line x1="5" y1="-1.22464679914735e-15" x2="2.57294901687516" y2="1.76335575687742"/>
<line x1="2.30494199754487" y1="0.647026180878365" x2="5.26800701933029" y2="1.11632957599905"/>
<line x1="4.02112620599793" y1="-0.599854632453997" x2="3.55182281087724" y2="2.36321038933142"/>
<line x1="5" y1="-1.22464679914735e-15" x2="5.92705098312484" y2="2.85316954888546"/>
<line x1="4.7825397419531" y1="2.76309456072528" x2="6.14451124117174" y2="0.0900749881601781"/>
<line x1="4.12701570527987" y1="0.745599024833408" x2="6.80003527784497" y2="2.10757052405205"/>
<line x1="-2.5" y1="4.33012701892219" x2="-5.43444280220142" y2="3.70639194646892"/>
<line x1="-4.78417995362325" y1="2.76025363077742" x2="-3.15026284857817" y2="5.27626533461369"/>
<line x1="-2.70921554918258" y1="3.20130093017301" x2="-5.22522725301884" y2="4.8352180352181"/>
<line x1="-2.5" y1="-4.33012701892219" x2="-4.00000000000001" y2="-6.92820323027551"/>
<line x1="-2.86177143234623" y1="-7.07805386403246" x2="-3.63822856765378" y2="-4.18027638516524"/>
<line x1="-1.8011112605664" y1="-5.24093655694507" x2="-4.69888873943361" y2="-6.01739369225263"/>
<line x1="5" y1="-1.22464679914735e-15" x2="8" y2="-2.69422295812418e-15"/>
<line x1="7.56066017177982" y1="1.06066017177982" x2="5.43933982822018" y2="-1.06066017177982"/>
<line x1="5.43933982822018" y1="1.06066017177982" x2="7.56066017177982" y2="-1.06066017177982"/>
<line x1="-2.5" y1="4.33012701892219" x2="-4" y2="6.92820323027551"/>
<line x1="-4.6988887394336" y1="6.01739369225263" x2="-1.8011112605664" y2="5.24093655694507"/>
<line x1="-3.63822856765378" y1="4.18027638516525" x2="-2.86177143234622" y2="7.07805386403245"/>
<line x1="-2.5" y1="-4.33012701892219" x2="-0.492608180923429" y2="-6.55956149535438"/>
<line x1="0.00164021167014772" y1="-5.52334819150271" x2="-2.99424839259358" y2="-5.36634032277387"/>
<line x1="-1.41780015609729" y1="-3.94689995500642" x2="-1.57480802482613" y2="-6.94278855927015"/>
<line x1="-2.5" y1="-4.33012701892219" x2="-2.81358538980296" y2="-1.34656133281737"/>
<line x1="-3.82251163708694" y1="-1.89436358929502" x2="-1.49107375271602" y2="-3.78232476244454"/>
<line x1="-3.60077328147624" y1="-4.00406311805524" x2="-1.71281210832672" y2="-1.67262523368432"/>
<line x1="5" y1="-1.22464679914735e-15" x2="5.92705098312484" y2="-2.85316954888546"/>
<line x1="6.80003527784497" y1="-2.10757052405205" x2="4.12701570527987" y2="-0.74559902483341"/>
<line x1="6.14451124117174" y1="-0.0900749881601806" x2="4.7825397419531" y2="-2.76309456072528"/>
<line x1="5" y1="-1.22464679914735e-15" x2="2.57294901687516" y2="1.76335575687742"/>
<line x1="2.30494199754487" y1="0.647026180878365" x2="5.26800701933029" y2="1.11632957599905"/>
<line x1="4.02112620599793" y1="-0.599854632453997" x2="3.55182281087724" y2="2.36321038933142"/>
<line x1="5" y1="-1.22464679914735e-15" x2="2.57294901687516" y2="-1.76335575687742"/>
<line x1="3.55182281087723" y1="-2.36321038933142" x2="4.02112620599793" y2="0.599854632453995"/>
<line x1="5.26800701933029" y1="-1.11632957599906" x2="2.30494199754487" y2="-0.647026180878364"/>
<line x1="5" y1="-1.22464679914735e-15" x2="5.92705098312484" y2="2.85316954888546"/>
<line x1="4.7825397419531" y1="2.76309456072528" x2="6.14451124117174" y2="0.0900749881601781"/>
<line x1="4.12701570527987" y1="0.745599024833408" x2="6.80003527784497" y2="2.10757052405205"/>
<line x1="-2.5" y1="4.33012701892219" x2="-5.43444280220142" y2="3.70639194646892"/>
<line x1="-4.78417995362325" y1="2.76025363077742" x2="-3.15026284857817" y2="5.27626533461369"/>
<line x1="-2.70921554918258" y1="3.20130093017301" x2="-5.22522725301884" y2="4.8352180352181"/>
<line x1="-2.5" y1="-4.33012701892219" x2="-5.43444280220142" y2="-3.70639194646891"/>
<line x1="-5.22522725301885" y1="-4.83521803521809" x2="-2.70921554918257" y2="-3.20130093017301"/>
<line x1="-3.15026284857817" y1="-5.27626533461369" x2="-4.78417995362325" y2="-2.76025363077741"/>
<line x1="-2.5" y1="4.33012701892219" x2="-4" y2="6.92820323027551"/>
<line x1="-4.6988887394336" y1="6.01739369225263" x2="-1.8011112605664" y2="5.24093655694507"/>
<line x1="-3.63822856765378" y1="4.18027638516525" x2="-2.86177143234622" y2="7.07805386403245"/>
<line x1="-2.5" y1="-4.33012701892219" x2="-0.492608180923429" y2="-6.55956149535438"/>
<line x1="0.00164021167014772" y1="-5.52334819150271" x2="-2.99424839259358" y2="-5.36634032277387"/>
<line x1="-1.41780015609729" y1="-3.94689995500642" x2="-1.57480802482613" y2="-6.94278855927015"/>
<line x1="-2.5" y1="-4.33012701892219" x2="-4.00000000000001" y2="-6.92820323027551"/>
<line x1="-2.86177143234623" y1="-7.07805386403246" x2="-3.63822856765378" y2="-4.18027638516524"/>
<line x1="-1.8011112605664" y1="-5.24093655694507" x2="-4.69888873943361" y2="-6.01739369225263"/>
<line x1="0" y1="0" x2="-2.5" y2="4.33012701892219"/>
<line x1="-3.66481456572267" y1="2.8121111222174" x2="1.16481456572267" y2="1.51801589670479"/>
<line x1="-1.8970476127563" y1="-0.249751056261574" x2="-0.602952387243698" y2="4.57987807518376"/>
<line x1="-2.5" y1="-4.33012701892219" x2="0.240636372927801" y2="-3.10991708969479"/>
<line x1="-0.59212988921815" y1="-2.31965141456269" x2="-1.66723373785405" y2="-5.12039269405429"/>
<line x1="-2.5300524532819" y1="-3.18247012999054" x2="0.270688826209702" y2="-4.25757397862644"/>
<line x1="-2.5" y1="4.33012701892219" x2="-2.81358538980296" y2="1.34656133281737"/>
<line x1="-1.71281210832672" y1="1.67262523368432" x2="-3.60077328147624" y2="4.00406311805524"/>
<line x1="-1.49107375271602" y1="3.78232476244454" x2="-3.82251163708694" y2="1.89436358929502"/>
<line x1="5" y1="-1.22464679914735e-15" x2="5.92705098312484" y2="-2.85316954888546"/>
<line x1="6.80003527784497" y1="-2.10757052405205" x2="4.12701570527987" y2="-0.74559902483341"/>
<line x1="6.14451124117174" y1="-0.0900749881601806" x2="4.7825397419531" y2="-2.76309456072528"/>
<line x1="0" y1="0" x2="-2.5" y2="-4.33012701892219"/>
<line x1="-0.602952387243699" y1="-4.57987807518376" x2="-1.8970476127563" y2="0.249751056261575"/>
<line x1="1.16481456572267" y1="-1.51801589670479" x2="-3.66481456572267" y2="-2.8121111222174"/>
<line x1="-2.5" y1="4.33012701892219" x2="-0.492608180923423" y2="6.55956149535437"/>
<line x1="-1.57480802482613" y1="6.94278855927014" x2="-1.4178001560973" y2="3.94689995500642"/>
<line x1="-2.99424839259357" y1="5.36634032277387" x2="0.00164021167014927" y2="5.52334819150269"/>
<line x1="0" y1="0" x2="-2.5" y2="-4.33012701892219"/>
<line x1="-0.602952387243699" y1="-4.57987807518376" x2="-1.8970476127563" y2="0.249751056261575"/>
<line x1="1.16481456572267" y1="-1.51801589670479" x2="-3.66481456572267" y2="-2.8121111222174"/>
</g>
<g id="noeud" style="stroke: rgb(255,0,0) ; fill: none ; stroke-width: 0.1">
<path d="M 3.78647450843758 -0.881677878438711 C 5.26800701933029 -1.11632957599906 4.26776695296637 1.76776695296637 2.5 -6.12323399573675e-16"/>
<path d="M 2.5 -6.12323399573675e-16 C 0.732233047033631 -1.76776695296637 -1.8970476127563 -0.249751056261574 -1.25 2.1650635094611"/>
<path d="M -1.25 2.1650635094611 C -0.602952387243698 4.57987807518376 -3.60077328147624 4.00406311805524 -2.65679269490148 2.83834417586978"/>
<path d="M -2.65679269490148 2.83834417586978 C -1.71281210832672 1.67262523368432 -3.82251163708694 1.89436358929502 -2.65679269490148 2.83834417586978"/>
<path d="M -2.65679269490148 2.83834417586978 C -1.49107375271602 3.78232476244454 -3.15026284857817 5.27626533461369 -3.96722140110071 4.01825948269556"/>
<path d="M -3.96722140110071 4.01825948269556 C -4.78417995362325 2.76025363077742 -5.22522725301884 4.8352180352181 -3.96722140110071 4.01825948269556"/>
<path d="M -3.96722140110071 4.01825948269556 C -2.70921554918258 3.20130093017301 -1.8011112605664 5.24093655694507 -3.25 5.62916512459885"/>
<path d="M -3.25 5.62916512459885 C -4.6988887394336 6.01739369225263 -2.86177143234622 7.07805386403245 -3.25 5.62916512459885"/>
<path d="M -3.25 5.62916512459885 C -3.63822856765378 4.18027638516525 -1.4178001560973 3.94689995500642 -1.49630409046171 5.44484425713828"/>
<path d="M -1.49630409046171 5.44484425713828 C -1.57480802482613 6.94278855927014 0.00164021167014927 5.52334819150269 -1.49630409046171 5.44484425713828"/>
<path d="M -1.49630409046171 5.44484425713828 C -2.99424839259357 5.36634032277387 -2.5300524532819 3.18247012999054 -1.1296818135361 3.72002205430849"/>
<path d="M -1.1296818135361 3.72002205430849 C 0.270688826209704 4.25757397862644 -0.592129889218148 2.31965141456269 -1.1296818135361 3.72002205430849"/>
<path d="M -1.1296818135361 3.72002205430849 C -1.66723373785405 5.12039269405429 -3.66481456572267 2.8121111222174 -1.25 2.1650635094611"/>
<path d="M -1.25 2.1650635094611 C 1.16481456572267 1.51801589670479 1.16481456572267 -1.51801589670479 -1.25 -2.1650635094611"/>
<path d="M -1.25 -2.1650635094611 C -3.66481456572267 -2.8121111222174 -1.66723373785405 -5.12039269405429 -1.1296818135361 -3.72002205430849"/>
<path d="M -1.1296818135361 -3.72002205430849 C -0.59212988921815 -2.31965141456269 0.270688826209702 -4.25757397862644 -1.1296818135361 -3.72002205430849"/>
<path d="M -1.1296818135361 -3.72002205430849 C -2.5300524532819 -3.18247012999054 -2.99424839259358 -5.36634032277387 -1.49630409046171 -5.44484425713829"/>
<path d="M -1.49630409046171 -5.44484425713829 C 0.00164021167014772 -5.52334819150271 -1.57480802482613 -6.94278855927015 -1.49630409046171 -5.44484425713829"/>
<path d="M -1.49630409046171 -5.44484425713829 C -1.41780015609729 -3.94689995500642 -3.63822856765378 -4.18027638516524 -3.25 -5.62916512459885"/>
<path d="M -3.25 -5.62916512459885 C -2.86177143234623 -7.07805386403246 -4.69888873943361 -6.01739369225263 -3.25 -5.62916512459885"/>
<path d="M -3.25 -5.62916512459885 C -1.8011112605664 -5.24093655694507 -2.70921554918257 -3.20130093017301 -3.96722140110071 -4.01825948269555"/>
<path d="M -3.96722140110071 -4.01825948269555 C -5.22522725301885 -4.83521803521809 -4.78417995362325 -2.76025363077741 -3.96722140110071 -4.01825948269555"/>
<path d="M -3.96722140110071 -4.01825948269555 C -3.15026284857817 -5.27626533461369 -1.49107375271602 -3.78232476244454 -2.65679269490148 -2.83834417586978"/>
<path d="M -2.65679269490148 -2.83834417586978 C -3.82251163708694 -1.89436358929502 -1.71281210832672 -1.67262523368432 -2.65679269490148 -2.83834417586978"/>
<path d="M -2.65679269490148 -2.83834417586978 C -3.60077328147624 -4.00406311805524 -0.602952387243699 -4.57987807518376 -1.25 -2.1650635094611"/>
<path d="M -1.25 -2.1650635094611 C -1.8970476127563 0.249751056261575 0.732233047033631 1.76776695296637 2.5 -6.12323399573675e-16"/>
<path d="M 2.5 -6.12323399573675e-16 C 4.26776695296637 -1.76776695296637 5.26800701933029 1.11632957599905 3.78647450843758 0.881677878438709"/>
<path d="M 3.78647450843758 0.881677878438709 C 2.30494199754487 0.647026180878365 3.55182281087724 2.36321038933142 3.78647450843758 0.881677878438709"/>
<path d="M 3.78647450843758 0.881677878438709 C 4.02112620599793 -0.599854632453997 6.14451124117174 0.0900749881601781 5.46352549156242 1.42658477444273"/>
<path d="M 5.46352549156242 1.42658477444273 C 4.7825397419531 2.76309456072528 6.80003527784497 2.10757052405205 5.46352549156242 1.42658477444273"/>
<path d="M 5.46352549156242 1.42658477444273 C 4.12701570527987 0.745599024833408 5.43933982822018 -1.06066017177982 6.5 -1.95943487863577e-15"/>
<path d="M 6.5 -1.95943487863577e-15 C 7.56066017177982 1.06066017177982 7.56066017177982 -1.06066017177982 6.5 -1.95943487863577e-15"/>
<path d="M 6.5 -1.95943487863577e-15 C 5.43933982822018 1.06066017177982 4.12701570527987 -0.74559902483341 5.46352549156242 -1.42658477444273"/>
<path d="M 5.46352549156242 -1.42658477444273 C 6.80003527784497 -2.10757052405205 4.7825397419531 -2.76309456072528 5.46352549156242 -1.42658477444273"/>
<path d="M 5.46352549156242 -1.42658477444273 C 6.14451124117174 -0.0900749881601806 4.02112620599793 0.599854632453995 3.78647450843758 -0.881677878438711"/>
<path d="M 3.78647450843758 -0.881677878438711 C 3.55182281087723 -2.36321038933142 2.30494199754487 -0.647026180878364 3.78647450843758 -0.881677878438711"/>
</g>
</g>
</svg>
